<svg width="203" height="22" viewBox="0 0 203 22" fill="none" xmlns="http://www.w3.org/2000/svg">
<path d="M5.65696 22H0.713778L8.24574 0.181818H14.1903L21.7116 22H16.7685L11.3033 5.16761H11.1328L5.65696 22ZM5.34801 13.424H17.0241V17.0249H5.34801V13.424ZM30.3377 22V0.181818H38.9457C40.5934 0.181818 41.9996 0.476562 43.1644 1.06605C44.3363 1.64844 45.2276 2.47585 45.8384 3.5483C46.4563 4.61364 46.7653 5.86719 46.7653 7.30895C46.7653 8.75781 46.4528 10.0043 45.8278 11.0483C45.2028 12.0852 44.2972 12.8807 43.1112 13.4347C41.9322 13.9886 40.5046 14.2656 38.8285 14.2656H33.065V10.5582H38.0827C38.9634 10.5582 39.695 10.4375 40.2773 10.196C40.8597 9.95455 41.293 9.59233 41.5771 9.10938C41.8683 8.62642 42.0138 8.02628 42.0138 7.30895C42.0138 6.58452 41.8683 5.97372 41.5771 5.47656C41.293 4.9794 40.8562 4.60298 40.2667 4.3473C39.6843 4.08452 38.9492 3.95312 38.0614 3.95312H34.9506V22H30.3377ZM42.1204 12.071L47.543 22H42.4506L37.1452 12.071H42.1204ZM55.1942 3.98508V0.181818H73.1133V3.98508H66.4336V22H61.8739V3.98508H55.1942ZM82.0643 22V0.181818H96.766V3.98508H86.6772V9.18395H96.0096V12.9872H86.6772V18.1967H96.8086V22H82.0643ZM106.433 22V0.181818H115.041C116.689 0.181818 118.095 0.476562 119.26 1.06605C120.432 1.64844 121.323 2.47585 121.934 3.5483C122.552 4.61364 122.861 5.86719 122.861 7.30895C122.861 8.75781 122.548 10.0043 121.923 11.0483C121.298 12.0852 120.393 12.8807 119.207 13.4347C118.028 13.9886 116.6 14.2656 114.924 14.2656H109.161V10.5582H114.178C115.059 10.5582 115.791 10.4375 116.373 10.196C116.955 9.95455 117.389 9.59233 117.673 9.10938C117.964 8.62642 118.11 8.02628 118.11 7.30895C118.11 6.58452 117.964 5.97372 117.673 5.47656C117.389 4.9794 116.952 4.60298 116.362 4.3473C115.78 4.08452 115.045 3.95312 114.157 3.95312H111.046V22H106.433ZM118.216 12.071L123.639 22H118.546L113.241 12.071H118.216ZM150.37 0.181818V22H146.386L136.894 8.26776H136.734V22H132.121V0.181818H136.169L145.587 13.9034H145.779V0.181818H150.37ZM163.942 22H158.999L166.531 0.181818H172.475L179.997 22H175.054L169.588 5.16761H169.418L163.942 22ZM163.633 13.424H175.309V17.0249H163.633V13.424ZM188.623 22V0.181818H193.236V18.1967H202.589V22H188.623Z" fill="black"/>
</svg>
